<svg xmlns="http://www.w3.org/2000/svg"  viewBox="0 0 48 48" width="48px" height="48px" fill-rule="evenodd" clip-rule="evenodd"><path fill="#cbdb2d" fill-rule="evenodd" d="M32.125,12.75c-2.606-2.842-5.348-3.229-6.875-3.25	c-0.633-0.009-1.08,0.068-1.265,0.099c0,0,0.172,1.762,0.89,3.973c0.276,0.851,0.291,1.394,0.75,2.303	c0.234,0.464,0.838,1.301,1.129,1.75c0.496,0.768,1.078,1.5,1.759,2.148c1.485,1.372,3.84,1.701,5.612,1.727	c1.37,0.02,2.392-0.141,2.392-0.141s-0.202-1.592-0.642-2.859C35.614,17.746,35,16.842,34.5,15.875	C33.854,14.626,33.289,14.022,32.125,12.75L32.125,12.75z M27.355,30.464c-0.313,0.395-0.841,1.283-1.105,1.661	c-2.487,3.568-2.637,5.792-2.75,6.192c0.195,0.065,0.956,0.181,2,0.183c2.341,0.004,6.101-0.382,8.068-3.382	c1.454-2.135,1.936-4.13,2.307-5.743c0.327-1.423,0.625-2.578,0.625-2.875c0,0-1.477-0.064-3.375,0.421	C31.277,27.393,29.029,28.385,27.355,30.464z M7.5,23.375c0.75,0.5,3.321,3.281,7.849,3.704c4.95,0.529,6.545-2.204,6.651-2.204	c0-0.132-0.911-0.761-2-1.625c-0.516-0.409-1.191-0.986-1.875-1.375C16.778,21.11,15.464,20.5,13.75,20.5	C10.696,20.605,7.5,23.375,7.5,23.375L7.5,23.375z M14.625,29.869c-0.923-0.012-1.909-0.09-2.962-0.251	c-0.635-0.103-1.593-0.102-2.163-0.242c-1.912-0.47-3.615-1.185-4.875-1.875c-0.952-0.521-1.234-1.127-1.867-1.625	c-1.348-1.061-2.027-1.923-2.258-1.97c0.293-0.392,2.126-2.103,4.25-3.28c0.762-0.422,1.578-0.376,2.5-0.75	c2.057-0.834,4.088-1.414,6.625-1.375c6.74,0.212,10.625,4,10.625,4h5c-3.475-1.058-7.5-3.5-9.202-7.268	C18.614,11.318,19.237,8.779,18.5,5.5c0,0,2.814-0.159,6.375,0.62c1.58,0.346,2.682,0.444,4.375,1.255	c0.715,0.342,2.049,1.166,2.738,1.616c2.011,1.321,3.555,2.827,4.887,5.009c0.565,0.927,1.209,2.487,1.645,3.375	c1.334,2.714,2.055,4.974,2.105,5.125h3.625l-0.171-3.875L43.919,15c0,0,0.109-1.969,0.081-2.625c-0.029-0.691-0.187-3.311-0.25-4	C43.655,7.347,43.5,5.5,43.5,5.5h4c-0.197,1.187,0.018,2.121,0,6.125c-0.005,1.226-0.302,4.779-0.297,6.125	c0.008,1.864,0.025,3.811,0.047,5.75c0.106,9.202,0.219,17.904,0.219,17.904c-0.421,0.105-4.153,0.317-4.469-0.529	c0,0,0.343-1.844,0.5-3.875c0.071-0.914-0.081-1.567,0.002-2.625c0.095-1.209,0.28-3.459,0.373-4.625	c0.225-2.805,0.334-4.127,0.375-4.25h-3.5c0,0.09,0.428,0.948-0.125,3.125c-0.216,0.849-0.601,2.409-1,3.375	c-0.217,0.524-0.842,1.183-1.125,1.717c-1.014,1.91-2.619,4.038-4.75,5.533c-4.222,2.961-9.57,3.244-13,3.25	c-1.96,0.003-3.25-0.125-3.25-0.125c1.375-2.875,0.547-2.709,1.624-5.375c0.402-0.995,0.996-2.166,1.911-3.575	c0.994-1.511,1.715-2.55,3.027-3.8C27.093,26.738,29.5,25.5,29.5,25.5s-4.019,0-4.125,0C25.375,25.5,22.197,29.967,14.625,29.869z" clip-rule="evenodd"/><path fill="#010101" d="M20.672,43c-1.918,0-3.168-0.122-3.221-0.127c-0.163-0.016-0.307-0.11-0.386-0.252	c-0.08-0.142-0.086-0.314-0.016-0.461c0.712-1.488,0.801-2.088,0.904-2.784c0.089-0.602,0.19-1.284,0.708-2.562	c0.467-1.157,1.107-2.354,1.956-3.66c0.996-1.514,1.749-2.602,3.101-3.89c1.592-1.517,3.009-2.583,4.014-3.263h-2.112	c-0.756,0.92-4.123,4.443-11,4.369c-0.977-0.012-1.996-0.099-3.031-0.257c-0.266-0.043-0.584-0.066-0.906-0.091	c-0.46-0.035-0.937-0.071-1.301-0.161c-1.738-0.427-3.513-1.109-4.996-1.922c-0.665-0.364-1.041-0.769-1.373-1.125	c-0.176-0.189-0.346-0.375-0.563-0.545c-0.747-0.587-1.302-1.124-1.669-1.479c-0.185-0.179-0.395-0.382-0.463-0.423	c-0.168-0.034-0.264-0.136-0.326-0.296s0.006-0.326,0.109-0.463c0.342-0.458,2.216-2.203,4.408-3.418	c0.482-0.267,0.972-0.37,1.446-0.47c0.36-0.075,0.732-0.153,1.108-0.306c1.782-0.722,3.998-1.447,6.821-1.412	c6.197,0.195,10.01,3.284,10.812,4h2.146c-2.341-1.104-5.453-3.139-6.999-6.563c-1.095-2.542-1.247-4.523-1.395-6.439	c-0.087-1.133-0.17-2.204-0.436-3.388c-0.032-0.144,0-0.294,0.089-0.411c0.088-0.117,0.224-0.189,0.371-0.198	c0.12-0.007,2.925-0.154,6.51,0.631c0.319,0.069,0.618,0.129,0.906,0.187c1.166,0.232,2.173,0.433,3.578,1.105	c0.739,0.354,2.077,1.18,2.795,1.648c2.178,1.43,3.732,3.023,5.041,5.168c0.399,0.654,0.824,1.585,1.198,2.407	c0.171,0.376,0.331,0.726,0.469,1.008c1.033,2.102,1.703,3.925,2.017,4.846h2.742l-0.308-6.978c0.001-0.069,0.107-2.002,0.081-2.626	c-0.03-0.706-0.188-3.32-0.249-3.975c-0.095-1.029-0.25-2.879-0.25-2.879c-0.012-0.14,0.035-0.277,0.13-0.38S43.36,5,43.5,5h4	c0.147,0,0.286,0.064,0.381,0.177c0.095,0.112,0.136,0.26,0.112,0.405c-0.102,0.616-0.084,1.159-0.05,2.24	C47.97,8.68,48.008,9.855,48,11.627c-0.002,0.592-0.07,1.683-0.141,2.838c-0.078,1.272-0.159,2.588-0.156,3.283	c0.008,1.863,0.024,3.808,0.047,5.746c0.106,9.201,0.219,17.904,0.219,17.904c0.003,0.231-0.154,0.435-0.378,0.491	c-0.043,0.012-4.53,0.579-5.059-0.839c-0.032-0.085-0.04-0.177-0.023-0.266c0.003-0.019,0.34-1.844,0.493-3.822	c0.032-0.409,0.015-0.769-0.002-1.15c-0.021-0.44-0.042-0.895,0.004-1.475l0.374-4.626c0.167-2.086,0.255-3.149,0.309-3.71h-2.324	c0.106,0.733,0.022,1.666-0.252,2.748l-0.037,0.145c-0.222,0.879-0.595,2.352-0.986,3.298c-0.144,0.348-0.411,0.708-0.668,1.058	c-0.181,0.244-0.368,0.497-0.477,0.702c-0.716,1.349-2.306,3.885-4.904,5.708c-4.25,2.981-9.618,3.334-13.286,3.341	C20.725,43,20.698,43,20.672,43z M18.253,41.93c0.562,0.034,1.44,0.064,2.496,0.07c3.533-0.006,8.695-0.34,12.714-3.159	c2.427-1.704,3.921-4.089,4.596-5.359c0.144-0.271,0.353-0.554,0.556-0.828c0.222-0.301,0.452-0.611,0.549-0.845	c0.363-0.88,0.725-2.308,0.94-3.162l0.037-0.146c0.297-1.17,0.347-2.107,0.148-2.787c-0.013-0.045-0.039-0.167-0.039-0.215	c0-0.276,0.224-0.5,0.5-0.5h3.5c0.161,0,0.311,0.077,0.405,0.207c0.094,0.13,0.12,0.297,0.069,0.45	c-0.034,0.184-0.195,2.192-0.351,4.133L44,34.414c-0.041,0.518-0.021,0.941-0.002,1.351c0.018,0.395,0.037,0.803,0,1.273	c-0.127,1.65-0.373,3.159-0.468,3.709c0.46,0.271,2.482,0.306,3.433,0.223c-0.024-1.876-0.121-9.483-0.213-17.465	c-0.022-1.941-0.039-3.888-0.047-5.754c-0.003-0.728,0.079-2.061,0.158-3.349c0.07-1.14,0.136-2.217,0.139-2.78	c0.008-1.754-0.029-2.919-0.057-3.769C46.918,7.051,46.9,6.508,46.938,6h-2.894c0.053,0.625,0.142,1.654,0.204,2.329	c0.063,0.683,0.221,3.292,0.251,4.025c0.029,0.672-0.077,2.592-0.082,2.674l0.332,7.45c0.006,0.136-0.044,0.269-0.138,0.368	S44.386,23,44.25,23h-3.625c-0.215,0-0.407-0.138-0.475-0.342c-0.199-0.607-0.905-2.675-2.079-5.062	c-0.142-0.289-0.306-0.648-0.482-1.035c-0.362-0.795-0.773-1.697-1.141-2.301c-1.228-2.011-2.688-3.508-4.735-4.852	c-0.668-0.436-1.988-1.252-2.679-1.583c-1.292-0.619-2.196-0.799-3.342-1.027c-0.294-0.059-0.599-0.12-0.924-0.191	c-2.514-0.55-4.659-0.615-5.659-0.621c0.189,1.028,0.264,1.995,0.336,2.934c0.147,1.918,0.287,3.73,1.312,6.112	c1.652,3.659,5.675,6.01,8.888,6.988c0.237,0.072,0.386,0.307,0.349,0.552S29.748,23,29.5,23h-5c-0.13,0-0.255-0.051-0.349-0.142	C24.114,22.822,20.31,19.203,13.859,19c-2.646-0.032-4.647,0.619-6.421,1.339c-0.459,0.187-0.895,0.278-1.279,0.358	c-0.438,0.092-0.816,0.171-1.167,0.366c-1.631,0.904-3.094,2.14-3.754,2.781c0.07,0.066,0.148,0.142,0.235,0.226	c0.374,0.361,0.886,0.856,1.593,1.412c0.269,0.211,0.476,0.435,0.677,0.65c0.308,0.331,0.599,0.643,1.122,0.93	c1.409,0.772,3.098,1.421,4.754,1.828c0.285,0.07,0.719,0.103,1.138,0.134c0.352,0.026,0.7,0.054,0.986,0.1	c0.984,0.15,1.958,0.233,2.888,0.245l0,0c7.191,0.08,10.307-4.117,10.337-4.16C25.062,25.079,25.214,25,25.375,25H29.5	c0.23,0,0.431,0.158,0.486,0.382c0.054,0.224-0.052,0.457-0.257,0.562c-0.023,0.012-2.388,1.247-5.322,4.042	c-1.278,1.218-1.969,2.215-2.954,3.713c-0.812,1.249-1.423,2.39-1.866,3.487c-0.473,1.168-0.561,1.761-0.646,2.335	C18.848,40.156,18.758,40.759,18.253,41.93z M25.533,39c-0.011,0-0.022,0-0.034,0c-1.003-0.002-1.86-0.109-2.158-0.209	c-0.253-0.085-0.395-0.354-0.322-0.61c0.011-0.042,0.022-0.106,0.039-0.195c0.15-0.805,0.549-2.943,2.782-6.147	c0.097-0.139,0.23-0.349,0.376-0.577c0.251-0.395,0.537-0.843,0.747-1.108c0.001-0.001,0.002-0.002,0.003-0.003	c1.441-1.789,3.528-3.073,6.036-3.714C34.949,25.939,36.46,26,36.521,26C36.789,26.012,37,26.232,37,26.5	c0,0.267-0.128,0.82-0.394,1.946l-0.244,1.042c-0.354,1.54-0.84,3.649-2.381,5.912C32.417,37.786,29.572,39,25.533,39z M24.089,37.918c0.328,0.041,0.836,0.072,1.443,0.082c3.681,0,6.244-1.062,7.617-3.156c1.44-2.115,1.901-4.119,2.238-5.582	l0.245-1.047c0.103-0.434,0.207-0.877,0.278-1.208c-0.579,0.025-1.548,0.113-2.663,0.398c-2.329,0.595-4.18,1.729-5.503,3.371	c-0.187,0.236-0.451,0.653-0.686,1.022c-0.154,0.242-0.296,0.464-0.399,0.612C24.754,35.146,24.268,37.029,24.089,37.918z M16.561,27.645c-0.443,0-0.868-0.027-1.265-0.069c-3.945-0.368-6.42-2.427-7.61-3.416c-0.199-0.166-0.353-0.295-0.463-0.369	c-0.13-0.086-0.212-0.229-0.222-0.384c-0.01-0.156,0.054-0.308,0.171-0.41c0.136-0.118,3.366-2.887,6.561-2.997c0,0,0,0,0.001,0	c1.941,0,3.412,0.743,4.638,1.44c0.604,0.342,1.192,0.817,1.666,1.199l0.273,0.219c0.359,0.284,0.698,0.543,0.992,0.767	c0.991,0.756,1.198,0.914,1.198,1.25c0,0.159-0.074,0.301-0.19,0.393C20.676,27.151,18.458,27.645,16.561,27.645z M8.305,23.374	c0.007,0.005,0.014,0.011,0.021,0.017c1.112,0.925,3.427,2.85,7.07,3.189c1.793,0.193,4.232,0.042,5.908-1.691	c-0.173-0.137-0.398-0.309-0.608-0.469c-0.297-0.227-0.642-0.49-1.006-0.779l-0.279-0.224c-0.468-0.377-0.999-0.806-1.532-1.108	C16.455,21.501,15.267,21,13.75,21C11.588,21.075,9.279,22.636,8.305,23.374z M34.364,22.002c-0.081,0-0.163-0.001-0.247-0.002	c-1.823-0.027-4.333-0.372-5.944-1.86c-0.673-0.64-1.291-1.393-1.84-2.244c-0.086-0.133-0.2-0.301-0.324-0.483	c-0.306-0.45-0.653-0.96-0.831-1.313c-0.327-0.647-0.45-1.138-0.568-1.612c-0.059-0.236-0.12-0.482-0.211-0.762	c-0.727-2.237-0.905-4.005-0.912-4.079c-0.025-0.262,0.156-0.499,0.416-0.542C24.117,9.07,24.6,8.994,25.257,9	c2.761,0.038,5.196,1.186,7.237,3.412c0,0,0,0,0,0l0.082,0.089c1.137,1.242,1.708,1.865,2.369,3.144	c0.177,0.342,0.368,0.676,0.552,0.998c0.344,0.6,0.668,1.167,0.851,1.693c0.452,1.302,0.657,2.893,0.666,2.96	c0.034,0.268-0.151,0.515-0.418,0.557C36.553,21.86,35.635,22.002,34.364,22.002z M24.545,10.027	c0.099,0.658,0.331,1.929,0.805,3.39c0.099,0.305,0.166,0.571,0.23,0.828c0.115,0.46,0.214,0.857,0.491,1.404	c0.149,0.295,0.491,0.798,0.766,1.202c0.129,0.189,0.248,0.364,0.337,0.502c0.506,0.785,1.073,1.476,1.684,2.057	c1.373,1.269,3.627,1.565,5.275,1.589c0.753,0.011,1.396-0.034,1.812-0.076c-0.093-0.556-0.271-1.48-0.542-2.261	c-0.152-0.438-0.454-0.965-0.774-1.523c-0.191-0.334-0.39-0.681-0.573-1.036c-0.6-1.16-1.107-1.714-2.218-2.927l-0.082-0.09	c-1.848-2.015-4.039-3.053-6.513-3.087C24.974,9.997,24.737,10.01,24.545,10.027z"/></svg>