<svg xmlns="http://www.w3.org/2000/svg" xmlns:xlink="http://www.w3.org/1999/xlink" viewBox="0,0,256,256" width="64px" height="64px" fill-rule="nonzero"><g fill="none" fill-rule="nonzero" stroke="none" stroke-width="1" stroke-linecap="butt" stroke-linejoin="miter" stroke-miterlimit="10" stroke-dasharray="" stroke-dashoffset="0" font-family="none" font-weight="none" font-size="none" text-anchor="none" style="mix-blend-mode: normal"><g transform="scale(4,4)"><path d="M51,22l-19,-10l-19,10v29l-7,-4.662v-30.338l26,-14l26,14v30.338l-7,4.662z" fill="#f0cf73"></path><path d="M25.954,10.137l-15.434,8.147c-1.456,0.768 -3.259,0.211 -4.027,-1.244l-0.812,-1.538l19.687,-10.392c0.706,-0.373 1.58,-0.103 1.953,0.604v0c0.844,1.599 0.232,3.579 -1.367,4.423z" fill="#f9e3ae"></path><path d="M51,52c-0.162,0 -0.324,-0.039 -0.472,-0.119c-0.325,-0.173 -0.528,-0.512 -0.528,-0.881v-28.396l-18,-9.474l-18,9.474v28.396c0,0.369 -0.203,0.708 -0.528,0.881c-0.325,0.174 -0.72,0.155 -1.026,-0.049l-7,-4.662c-0.279,-0.185 -0.446,-0.497 -0.446,-0.832v-30.338c0,-0.368 0.202,-0.706 0.526,-0.88l26,-14c0.296,-0.159 0.652,-0.159 0.948,0l26,14c0.324,0.174 0.526,0.512 0.526,0.88v30.338c0,0.334 -0.167,0.647 -0.446,0.833l-7,4.662c-0.167,0.111 -0.36,0.167 -0.554,0.167zM32,11c0.16,0 0.32,0.039 0.466,0.115l19,10c0.328,0.173 0.534,0.514 0.534,0.885v27.133l5,-3.33v-29.206l-25,-13.461l-25,13.461v29.206l5,3.33v-27.133c0,-0.371 0.206,-0.712 0.534,-0.885l19,-10c0.146,-0.076 0.306,-0.115 0.466,-0.115z" fill="#8d6c9f"></path><path d="M11.382,19c-0.359,0 -0.707,-0.194 -0.886,-0.534c-0.257,-0.489 -0.07,-1.093 0.419,-1.351l2.619,-1.378c0.489,-0.257 1.094,-0.069 1.351,0.419c0.257,0.489 0.07,1.093 -0.419,1.351l-2.619,1.378c-0.148,0.078 -0.308,0.115 -0.465,0.115z" fill="#8d6c9f"></path><path d="M18.001,15.517c-0.359,0 -0.707,-0.194 -0.886,-0.534c-0.257,-0.489 -0.07,-1.093 0.419,-1.351l6.681,-3.517c0.489,-0.256 1.094,-0.069 1.351,0.419c0.257,0.489 0.07,1.093 -0.419,1.351l-6.681,3.517c-0.149,0.077 -0.308,0.115 -0.465,0.115z" fill="#8d6c9f"></path><path d="M19,55v-28l7,-4v28l6,3.02l6,-3.02v-28l7,4v28l-13,7z" fill="#f0cf73"></path><path d="M32,63c-0.163,0 -0.326,-0.04 -0.474,-0.12l-13,-7c-0.324,-0.174 -0.526,-0.512 -0.526,-0.88v-28c0,-0.359 0.192,-0.69 0.504,-0.868l7,-4c0.309,-0.177 0.689,-0.177 0.998,0.003c0.308,0.179 0.498,0.509 0.498,0.865v27.384l5,2.517l5,-2.517v-27.384c0,-0.356 0.19,-0.686 0.498,-0.865c0.309,-0.179 0.689,-0.18 0.998,-0.003l7,4c0.312,0.178 0.504,0.509 0.504,0.868v28c0,0.368 -0.202,0.706 -0.526,0.88l-13,7c-0.148,0.08 -0.311,0.12 -0.474,0.12zM20,54.403l12,6.461l12,-6.461v-26.823l-5,-2.857v26.277c0,0.378 -0.213,0.723 -0.55,0.893l-6,3.021c-0.283,0.143 -0.616,0.143 -0.899,0l-6,-3.021c-0.338,-0.17 -0.551,-0.515 -0.551,-0.893v-26.277l-5,2.857z" fill="#8d6c9f"></path><g fill="#8d6c9f"><path d="M30,49c0,0.553 0.448,1 1,1h2c0.552,0 1,-0.447 1,-1c0,-0.553 -0.448,-1 -1,-1h-2c-0.552,0 -1,0.447 -1,1zM30,44c0,0.553 0.448,1 1,1h2c0.552,0 1,-0.447 1,-1c0,-0.553 -0.448,-1 -1,-1h-2c-0.552,0 -1,0.447 -1,1zM30,39c0,0.553 0.448,1 1,1h2c0.552,0 1,-0.447 1,-1c0,-0.553 -0.448,-1 -1,-1h-2c-0.552,0 -1,0.447 -1,1zM34,34c0,-0.553 -0.448,-1 -1,-1h-2c-0.552,0 -1,0.447 -1,1c0,0.553 0.448,1 1,1h2c0.552,0 1,-0.447 1,-1zM34,29c0,-0.553 -0.448,-1 -1,-1h-2c-0.552,0 -1,0.447 -1,1c0,0.553 0.448,1 1,1h2c0.552,0 1,-0.447 1,-1zM34,24c0,-0.553 -0.448,-1 -1,-1h-2c-0.552,0 -1,0.447 -1,1c0,0.553 0.448,1 1,1h2c0.552,0 1,-0.447 1,-1z"></path></g></g></g><g fill="#181817" fill-rule="nonzero" stroke="none" stroke-width="1" stroke-linecap="butt" stroke-linejoin="miter" stroke-miterlimit="10" stroke-dasharray="" stroke-dashoffset="0" font-family="none" font-weight="none" font-size="none" text-anchor="none" style="mix-blend-mode: normal"><g><path d="M92.81,81.25v-11.2h6.1v1.18h-4.77v3.67h4.37v1.18h-4.37v3.99h4.85v1.18zM101.53,74.8l-0.4,-0.96c0.40667,-0.24667 0.88,-0.42667 1.42,-0.54c0.53333,-0.12 1.09333,-0.18 1.68,-0.18v0c0.56,0 1.00667,0.07667 1.34,0.23c0.33333,0.14667 0.59,0.34 0.77,0.58c0.17333,0.24 0.29,0.50333 0.35,0.79c0.06,0.28667 0.09,0.57667 0.09,0.87v0c0,0.64 -0.01667,1.26333 -0.05,1.87c-0.03333,0.60667 -0.05,1.18333 -0.05,1.73v0c0,0.39333 0.01667,0.76667 0.05,1.12c0.03333,0.34667 0.09333,0.67 0.18,0.97v0h-0.95l-0.33,-1.12h-0.08c-0.1,0.15333 -0.22,0.3 -0.36,0.44c-0.14667,0.14667 -0.32,0.27667 -0.52,0.39c-0.20667,0.10667 -0.44333,0.2 -0.71,0.28c-0.26667,0.07333 -0.57,0.11 -0.91,0.11v0c-0.34,0 -0.65667,-0.05333 -0.95,-0.16c-0.29333,-0.10667 -0.54667,-0.26 -0.76,-0.46c-0.21333,-0.19333 -0.38333,-0.43 -0.51,-0.71c-0.12,-0.28 -0.18,-0.59333 -0.18,-0.94v0c0,-0.47333 0.09667,-0.86667 0.29,-1.18c0.19333,-0.31333 0.46333,-0.56333 0.81,-0.75c0.34667,-0.18667 0.76,-0.32 1.24,-0.4c0.48667,-0.08 1.02333,-0.12 1.61,-0.12v0c0.15333,0 0.3,0 0.44,0c0.14667,0 0.29333,0.01 0.44,0.03v0c0.03333,-0.32 0.05,-0.60667 0.05,-0.86v0c0,-0.58667 -0.11667,-1 -0.35,-1.24c-0.23333,-0.23333 -0.66,-0.35 -1.28,-0.35v0c-0.18,0 -0.37667,0.01333 -0.59,0.04c-0.20667,0.02667 -0.42,0.06333 -0.64,0.11c-0.21333,0.05333 -0.42,0.11333 -0.62,0.18c-0.2,0.06667 -0.37333,0.14333 -0.52,0.23zM103.4,80.26v0c0.3,0 0.56667,-0.04 0.8,-0.12c0.23333,-0.08 0.43667,-0.18333 0.61,-0.31c0.17333,-0.12 0.31333,-0.25333 0.42,-0.4c0.11333,-0.15333 0.19667,-0.3 0.25,-0.44v0v-1.32c-0.14667,-0.01333 -0.29667,-0.02333 -0.45,-0.03c-0.16,-0.00667 -0.31333,-0.01 -0.46,-0.01v0c-0.33333,0 -0.65667,0.02 -0.97,0.06c-0.31333,0.04 -0.59,0.11 -0.83,0.21c-0.24,0.1 -0.43333,0.23667 -0.58,0.41c-0.14,0.18 -0.21,0.40333 -0.21,0.67v0c0,0.37333 0.13333,0.68 0.4,0.92c0.26667,0.24 0.60667,0.36 1.02,0.36zM112.71,79.07v0c0,-0.32 -0.09333,-0.57 -0.28,-0.75c-0.19333,-0.18 -0.43333,-0.33 -0.72,-0.45c-0.28,-0.12667 -0.58667,-0.24667 -0.92,-0.36c-0.34,-0.10667 -0.65,-0.25 -0.93,-0.43c-0.28667,-0.17333 -0.52333,-0.4 -0.71,-0.68c-0.19333,-0.27333 -0.29,-0.64667 -0.29,-1.12v0c0,-0.76667 0.21667,-1.33 0.65,-1.69c0.44,-0.35333 1.05,-0.53 1.83,-0.53v0c0.57333,0 1.05667,0.05 1.45,0.15c0.38667,0.1 0.72333,0.22 1.01,0.36v0l-0.3,1.06c-0.24667,-0.12 -0.54333,-0.22667 -0.89,-0.32c-0.34667,-0.08667 -0.71667,-0.13 -1.11,-0.13v0c-0.47333,0 -0.81667,0.08 -1.03,0.24c-0.22,0.16 -0.33,0.43667 -0.33,0.83v0c0,0.28 0.09667,0.49667 0.29,0.65c0.18667,0.15333 0.42333,0.29 0.71,0.41c0.28,0.12667 0.59,0.24667 0.93,0.36c0.33333,0.12 0.64,0.27667 0.92,0.47c0.28667,0.19333 0.52667,0.43667 0.72,0.73c0.18667,0.29333 0.28,0.68 0.28,1.16v0c0,0.34 -0.05333,0.66 -0.16,0.96c-0.11333,0.29333 -0.28667,0.54667 -0.52,0.76c-0.24,0.21333 -0.53333,0.38333 -0.88,0.51c-0.34667,0.12 -0.75333,0.18 -1.22,0.18v0c-0.60667,0 -1.12333,-0.05667 -1.55,-0.17c-0.42667,-0.12 -0.78333,-0.26 -1.07,-0.42v0l0.38,-1.09c0.24667,0.14 0.56667,0.27 0.96,0.39c0.39333,0.11333 0.79333,0.17 1.2,0.17v0c0.46,0 0.84,-0.09 1.14,-0.27c0.29333,-0.18 0.44,-0.50667 0.44,-0.98zM116.36,73.25l1.92,5.18l0.45,1.54h0.08l0.35,-1.55l1.55,-5.17h1.3l-2.37,7.18c-0.18,0.52667 -0.35667,1.03333 -0.53,1.52c-0.18,0.49333 -0.37667,0.93333 -0.59,1.32c-0.21333,0.38 -0.45333,0.68667 -0.72,0.92c-0.26667,0.22667 -0.57667,0.34 -0.93,0.34v0c-0.38,0 -0.69333,-0.05333 -0.94,-0.16v0l0.22,-1.1c0.14,0.05333 0.27333,0.08 0.4,0.08v0c0.3,0 0.59,-0.16 0.87,-0.48c0.27333,-0.31333 0.50333,-0.85333 0.69,-1.62v0l-3.22,-8zM133.18,81.25l-1.15,-3.1h-4.13l-1.12,3.1h-1.31l4.24,-11.38h0.6l4.26,11.38zM129.56,73.62l-1.23,3.37h3.3l-1.25,-3.4l-0.4,-1.7h-0.02zM135.93,84.45v-11.2h0.88l0.24,0.96h0.06c0.24667,-0.37333 0.56667,-0.66 0.96,-0.86c0.38667,-0.19333 0.83,-0.29 1.33,-0.29v0c1.06667,0 1.86333,0.31333 2.39,0.94c0.52,0.63333 0.78,1.66333 0.78,3.09v0c0,0.67333 -0.08667,1.28 -0.26,1.82c-0.18,0.53333 -0.43,0.98667 -0.75,1.36c-0.32,0.37333 -0.70667,0.66333 -1.16,0.87c-0.45333,0.2 -0.95667,0.3 -1.51,0.3v0c-0.39333,0 -0.70667,-0.02333 -0.94,-0.07c-0.22667,-0.04667 -0.47333,-0.13 -0.74,-0.25v0v3.33zM139.16,74.18v0c-0.54,0 -0.97,0.14 -1.29,0.42c-0.31333,0.28667 -0.53333,0.71667 -0.66,1.29v0v3.97c0.19333,0.14667 0.41333,0.26 0.66,0.34c0.24,0.08 0.56333,0.12 0.97,0.12v0c0.74,0 1.32333,-0.27333 1.75,-0.82c0.43333,-0.55333 0.65,-1.36333 0.65,-2.43v0c0,-0.43333 -0.03667,-0.83 -0.11,-1.19c-0.07333,-0.35333 -0.19333,-0.65667 -0.36,-0.91c-0.16667,-0.25333 -0.38,-0.44667 -0.64,-0.58c-0.26,-0.14 -0.58333,-0.21 -0.97,-0.21zM144.59,84.45v-11.2h0.88l0.24,0.96h0.06c0.24667,-0.37333 0.56333,-0.66 0.95,-0.86c0.39333,-0.19333 0.84,-0.29 1.34,-0.29v0c1.06667,0 1.86,0.31333 2.38,0.94c0.52667,0.63333 0.79,1.66333 0.79,3.09v0c0,0.67333 -0.09,1.28 -0.27,1.82c-0.17333,0.53333 -0.42,0.98667 -0.74,1.36c-0.32,0.37333 -0.70667,0.66333 -1.16,0.87c-0.45333,0.2 -0.95667,0.3 -1.51,0.3v0c-0.4,0 -0.71333,-0.02333 -0.94,-0.07c-0.22667,-0.04667 -0.47333,-0.13 -0.74,-0.25v0v3.33zM147.82,74.18v0c-0.54667,0 -0.97667,0.14 -1.29,0.42c-0.31333,0.28667 -0.53333,0.71667 -0.66,1.29v0v3.97c0.18667,0.14667 0.40333,0.26 0.65,0.34c0.24667,0.08 0.57333,0.12 0.98,0.12v0c0.73333,0 1.31667,-0.27333 1.75,-0.82c0.43333,-0.55333 0.65,-1.36333 0.65,-2.43v0c0,-0.43333 -0.03667,-0.83 -0.11,-1.19c-0.08,-0.35333 -0.2,-0.65667 -0.36,-0.91c-0.16667,-0.25333 -0.38,-0.44667 -0.64,-0.58c-0.26667,-0.14 -0.59,-0.21 -0.97,-0.21zM154.67,70.05v9.23c0,0.37333 0.06333,0.64 0.19,0.8c0.12667,0.16 0.30667,0.24 0.54,0.24v0c0.14,0 0.29,-0.01 0.45,-0.03c0.16,-0.02 0.34,-0.06667 0.54,-0.14v0l0.15,1c-0.17333,0.08667 -0.41,0.15667 -0.71,0.21c-0.30667,0.05333 -0.57333,0.08 -0.8,0.08v0c-0.48,0 -0.87333,-0.13667 -1.18,-0.41c-0.30667,-0.26667 -0.46,-0.72667 -0.46,-1.38v0v-9.6zM158.35,73.25l1.92,5.18l0.44,1.54h0.08l0.36,-1.55l1.55,-5.17h1.29l-2.36,7.18c-0.18667,0.52667 -0.36667,1.03333 -0.54,1.52c-0.17333,0.49333 -0.36667,0.93333 -0.58,1.32c-0.21333,0.38 -0.45333,0.68667 -0.72,0.92c-0.26667,0.22667 -0.57667,0.34 -0.93,0.34v0c-0.38667,0 -0.70333,-0.05333 -0.95,-0.16v0l0.23,-1.1c0.14,0.05333 0.27333,0.08 0.4,0.08v0c0.3,0 0.58667,-0.16 0.86,-0.48c0.28,-0.31333 0.51,-0.85333 0.69,-1.62v0l-3.22,-8z"></path></g></g></svg>